<svg xmlns="http://www.w3.org/2000/svg" viewBox="0 0 912 980"><title>Asset 1</title><g id="Layer_2" data-name="Layer 2"><g id="Layer_1-2" data-name="Layer 1"><path d="M0,481c.91-4.55,1.59-9.16,2.75-13.65,9.74-37.52,34-61.26,70.3-73.23,5.08-1.68,10.84-1.85,16.28-1.86q252.21-.57,504.42-.91c74.66-.09,149.32.39,224-.2C833,391,846.23,395,858.91,402.26c29.53,16.91,47.88,41.69,52.32,76A7.21,7.21,0,0,0,912,480v17c-3,10.68-4.68,22-9.23,31.92-13.25,29-35.35,48.29-66.62,56.31a31,31,0,0,1-7.39.86c-75,.67-150,1.69-224.92,1.82q-194.46.36-388.91-.22c-41.82-.08-83.64-1.05-125.46-1.23a72.71,72.71,0,0,1-34.36-9C24.17,561.05,5.56,535.85.85,500.83A18,18,0,0,0,0,498Z"/><path d="M0,874c.93-5,1.63-10.12,2.84-15.09,9-36.86,33-59.82,67.79-72.5,3.49-1.27,7.51-1.47,11.29-1.48q216.4-.4,432.8-.65c104.12-.08,208.24.16,312.36,0a52.57,52.57,0,0,1,22.59,4.83c27.42,12.54,47,32.41,56.65,61.15,2.87,8.58,3.84,17.79,5.68,26.71v9c-.29,1.28-.67,2.55-.84,3.85-5.45,41.61-27.2,70.43-66.83,85.23-4.44,1.66-8.89,3.28-13.33,4.92H81c-3.66-1.35-7.28-2.81-11-4-30.4-10-51.93-29.57-63.24-59.58C3.49,907.65,2.2,898.15,0,889Z"/><path d="M912,103c-1.61,7.78-2.51,15.78-4.94,23.29-10.55,32.66-32.59,54.28-64.85,65.51A40.09,40.09,0,0,1,830,194c-42.3.74-84.61,1.76-126.91,1.81q-247.14.32-494.28,0c-39.64,0-79.28-.89-118.92-1.22-23.18-.19-42.12-10.18-58.51-25.5C13.68,152.57,3.71,131.92.89,107.84A34.93,34.93,0,0,0,0,104V89a10,10,0,0,0,.8-2.28C3.13,64.18,12.11,44.56,28.28,28.86,43.91,13.69,61.59,1.7,84.64,1.21,92.13,1,99.63,1,107.12.83S122.37.28,130,0H839c6.26,3.3,12.49,6.67,18.8,9.89Q897.34,30.11,908.62,73c1.54,5.88,2.27,12,3.38,18Z"/></g></g></svg>